<?xml version="1.0" encoding="utf-8"?>
<!-- Generator: Adobe Illustrator 25.3.0, SVG Export Plug-In . SVG Version: 6.00 Build 0)  -->
<svg version="1.1" id="Layer_1" xmlns="http://www.w3.org/2000/svg" xmlns:xlink="http://www.w3.org/1999/xlink" x="0px" y="0px"
	 viewBox="0 0 550 550" style="enable-background:new 0 0 550 550;" xml:space="preserve">
<style type="text/css">
	.st0{fill:none;stroke:#FF9100;stroke-width:3;stroke-miterlimit:10;}
	.st1{fill:none;stroke:#FFFFFF;stroke-width:3;stroke-miterlimit:10;}
</style>
<polygon class="st0" points="348.57,275 348.57,251.35 276.17,209.22 233.91,232.7 233.91,280.04 296.91,314.87 296.13,339.13 
	275.39,352.04 203.39,310.57 203.39,333.65 275.98,375.13 316.87,350.48 316.09,303.52 255.43,267.91 254.26,244.43 275.98,232.7 
	"/>
<polygon class="st1" points="275.98,245.61 266,251.09 266,262.43 327.43,297.65 327.43,344.22 346.61,334.43 348.57,286.7 "/>
<polygon class="st1" points="222.57,239.35 203.39,249.52 203.39,298.43 273.83,338.35 285.17,333.26 285.17,322.3 223.74,285.91 
	"/>
</svg>
